<svg width="20" height="20" viewBox="0 0 20 20" fill="none" xmlns="http://www.w3.org/2000/svg">
<path d="M11.6667 10.6248C11.6667 9.81942 10.9205 9.1665 10 9.1665C9.07957 9.1665 8.33337 9.81942 8.33337 10.6248C8.33337 11.4303 9.07957 12.0832 10 12.0832C10.9205 12.0832 11.6667 12.7361 11.6667 13.5415C11.6667 14.3469 10.9205 14.9998 10 14.9998C9.07957 14.9998 8.33337 14.3469 8.33337 13.5415" stroke="#F2994A" stroke-width="1.5" stroke-linecap="round"/>
<path d="M10 7.9165V9.1665" stroke="#F2994A" stroke-width="1.5" stroke-linecap="round" stroke-linejoin="round"/>
<path d="M10 15V16.25" stroke="#F2994A" stroke-width="1.5" stroke-linecap="round" stroke-linejoin="round"/>
<path d="M4.51568 9.78635C5.30254 7.42574 7.51167 5.8335 9.99996 5.8335V5.8335C12.4883 5.8335 14.6974 7.42574 15.4842 9.78634L15.7008 10.4361C16.9959 14.3213 14.0953 18.3335 9.99996 18.3335V18.3335C5.90461 18.3335 3.00402 14.3213 4.29908 10.4361L4.51568 9.78635Z" stroke="#F2994A" stroke-width="1.5" stroke-linejoin="round"/>
<path d="M11.7382 5.83317L8.26172 5.83317L7.09415 4.49397C5.94962 3.18119 7.28483 1.21898 8.95585 1.75804L9.72899 2.00745C9.90502 2.06424 10.0949 2.06424 10.2709 2.00745L11.0441 1.75804C12.7151 1.21898 14.0503 3.18119 12.9058 4.49397L11.7382 5.83317Z" stroke="#F2994A" stroke-width="1.5" stroke-linejoin="round"/>
</svg>
